<svg width="28" height="26" viewBox="0 0 28 26" fill="none" xmlns="http://www.w3.org/2000/svg">
<g clip-path="url(#clip0_154_892)">
<path d="M27.2941 11.5647L14.9736 0.988584C14.4329 0.524296 13.6174 0.524347 13.0768 0.988533L0.756304 11.5647C0.323111 11.9366 0.180018 12.5096 0.391654 13.0244C0.603343 13.5392 1.11876 13.8718 1.7048 13.8718H3.67259V24.4683C3.67259 24.8884 4.03419 25.229 4.48014 25.229H11.2333C11.6792 25.229 12.0408 24.8884 12.0408 24.4683V18.0344H16.0098V24.4683C16.0098 24.8884 16.3714 25.2291 16.8173 25.2291H23.5701C24.0161 25.2291 24.3777 24.8885 24.3777 24.4683V13.8718H26.3459C26.9318 13.8718 27.4473 13.5391 27.659 13.0244C27.8704 12.5095 27.7273 11.9366 27.2941 11.5647Z" fill="#398AB9"/>
</g>
<defs>
<clipPath id="clip0_154_892">
<rect width="27.4601" height="25.8696" fill="white" transform="translate(0.295166)"/>
</clipPath>
</defs>
</svg>
