<svg width="29" height="29" viewBox="0 0 29 29" fill="none" xmlns="http://www.w3.org/2000/svg">
<path d="M25.375 9.66675C23.623 9.66675 22.6442 11.4067 23.043 12.6997L18.7534 17.0013C18.3909 16.8926 17.8592 16.8926 17.4967 17.0013L14.4155 13.9201C14.8263 12.6272 13.8475 10.8751 12.0834 10.8751C10.3313 10.8751 9.34046 12.6151 9.75129 13.9201L4.24129 19.418C2.94837 19.0192 1.20837 19.998 1.20837 21.7501C1.20837 23.0792 2.29587 24.1667 3.62504 24.1667C5.37712 24.1667 6.35587 22.4267 5.95712 21.1338L11.455 15.6238C11.8175 15.7326 12.3492 15.7326 12.7117 15.6238L15.793 18.7051C15.3821 19.998 16.3609 21.7501 18.125 21.7501C19.8771 21.7501 20.868 20.0101 20.4571 18.7051L24.7588 14.4155C26.0517 14.8142 27.7917 13.8355 27.7917 12.0834C27.7917 10.7542 26.7042 9.66675 25.375 9.66675Z" fill="#D2D2D2"/>
<path d="M18.125 10.875L19.2608 8.37375L21.75 7.25L19.2608 6.12625L18.125 3.625L17.0133 6.12625L14.5 7.25L17.0133 8.37375L18.125 10.875Z" fill="#D2D2D2"/>
<path d="M4.22921 13.2917L4.83337 10.875L7.25004 10.2708L4.83337 9.66667L4.22921 7.25L3.62504 9.66667L1.20837 10.2708L3.62504 10.875L4.22921 13.2917Z" fill="#D2D2D2"/>
</svg>
