<svg width="32" height="30" viewBox="0 0 32 30" fill="none" xmlns="http://www.w3.org/2000/svg">
<path d="M16 27.238C14.528 27.2313 13.3345 26.1285 13.32 24.7618H18.6533C18.6565 25.0927 18.589 25.421 18.4546 25.7275C18.1047 26.4727 17.3903 27.0163 16.5346 27.1885H16.528H16.5106H16.4973H16.4826H16.4733C16.3175 27.2184 16.159 27.235 16 27.238ZM26.6666 23.5237H5.33329V21.0475L7.99996 19.8094V12.9999C7.92972 11.2531 8.35454 9.51975 9.23196 7.97322C10.1053 6.5389 11.5982 5.5204 13.3333 5.17512V2.47607H18.6666V5.17512C22.1053 5.93531 24 8.7136 24 12.9999V19.8094L26.6666 21.0475V23.5237ZM29.2933 12.3808H26.6266C26.5024 9.17899 24.8448 6.19594 22.1066 4.24655L24 2.47607C25.5947 3.6281 26.8833 5.10468 27.7666 6.79207C28.6799 8.53906 29.1994 10.4408 29.2933 12.3808ZM5.33329 12.3808H2.66663C2.76044 10.4408 3.27994 8.53905 4.19329 6.79207C5.07657 5.10468 6.36522 3.6281 7.95996 2.47607L9.85329 4.24655C7.11478 6.19571 5.4571 9.1789 5.33329 12.3808Z" fill="#D2D2D2"/>
</svg>
