<svg width="29" height="29" viewBox="0 0 29 29" fill="none" xmlns="http://www.w3.org/2000/svg">
<path d="M17.1542 28.3489H11.8459C11.1606 28.3489 10.5677 27.8978 10.4211 27.2646L9.82752 24.6656C9.03572 24.3374 8.28493 23.9271 7.58898 23.442L4.91002 24.249C4.25669 24.4461 3.54646 24.186 3.20377 23.6241L0.543773 19.2773C0.204839 18.7151 0.321609 18.006 0.825232 17.5681L2.90336 15.7747C2.80885 14.9623 2.80885 14.1426 2.90336 13.3302L0.825232 11.541C0.320867 11.1028 0.204051 10.3929 0.543773 9.83041L3.19794 5.48083C3.54063 4.91896 4.25086 4.65884 4.90419 4.85592L7.58315 5.66293C7.93907 5.41345 8.30959 5.18317 8.69294 4.97318C9.06094 4.77686 9.43966 4.59912 9.82752 4.44069L10.4225 1.84446C10.5685 1.21122 11.1607 0.759471 11.8459 0.758789H17.1542C17.8393 0.759471 18.4316 1.21122 18.5775 1.84446L19.1784 4.44207C19.5878 4.61246 19.9866 4.80499 20.3727 5.0187C20.7333 5.21566 21.0819 5.43167 21.4169 5.66569L24.0973 4.85868C24.7502 4.66233 25.4596 4.92235 25.8021 5.48359L28.4563 9.83317C28.7952 10.3953 28.6784 11.1044 28.1748 11.5424L26.0967 13.3357C26.1912 14.1481 26.1912 14.9678 26.0967 15.7802L28.1748 17.5736C28.6784 18.0115 28.7952 18.7207 28.4563 19.2828L25.8021 23.6324C25.4596 24.1936 24.7502 24.4536 24.0973 24.2573L21.4169 23.4503C21.0777 23.6866 20.7253 23.9053 20.3611 24.1055C19.9787 24.3151 19.5844 24.5044 19.1798 24.6725L18.5775 27.2646C18.431 27.8973 17.8389 28.3483 17.1542 28.3489ZM14.4942 9.03582C11.2725 9.03582 8.66086 11.5063 8.66086 14.5538C8.66086 17.6014 11.2725 20.0719 14.4942 20.0719C17.7159 20.0719 20.3275 17.6014 20.3275 14.5538C20.3275 11.5063 17.7159 9.03582 14.4942 9.03582Z" fill="#1C668D"/>
</svg>
