<svg class="svg-icon" style="width: 1em; height: 1em;vertical-align: middle;fill: currentColor;overflow: hidden;" viewBox="0 0 1024 1024" version="1.1" xmlns="http://www.w3.org/2000/svg"><path d="M442.8 176.4c-134 0-239.5 120.8-272 220-0.2 0.5-0.3 1-0.5 1.6-1.5 4.8-2.4 9.5-0.9 14.3 1.7 5.3 5.3 9.7 10.2 12.3l0.1 0.1c3.2 1.6 6.3 2.3 9.6 2.3 7.8 0 16.1-3.7 18.6-11.2 0.2-0.6 0.4-1.3 0.7-1.9 29.4-85.1 127-199.8 234.3-195.7 11.5 0.4 20.9-9.4 20.9-20.9-0.1-11.5-9.5-20.9-21-20.9z m185.8 67.9c-3.7-3.1-8.5-4.9-13.4-4.9-6.1 0-12 2.7-16 7.4-3.5 4.2-5.3 9.7-4.8 15.3 0.6 5.6 3.2 10.7 7.4 14.1 9.4 7.9 18.1 16.3 26.1 25.3 6.3 7.1 16.6 9.1 25.1 4.7 12.2-6.2 15.1-22.3 6-32.5-9.4-10.4-19.5-20.2-30.4-29.4z" fill="#FFFFFF" /><path d="M499.8 98.7c-1.1-0.2-2.2-0.3-3.3-0.3-10.2 0-19 7.6-20.6 17.6-0.8 5.5 0.5 11 3.8 15.5 3.3 4.6 8.1 7.6 13.6 8.4 30.3 4.9 50.9 34.5 45.9 66.1-4.4 28.1-28.4 49.3-55.7 49.3-2.8 0-5.6-0.2-8.4-0.7-1.1-0.2-2.2-0.2-3.4-0.2-10.1 0-19 7.5-20.6 17.6-0.8 5.5 0.5 11 3.8 15.5 3.3 4.4 8.1 7.5 13.6 8.3 5 0.8 10.1 1.3 15 1.3 23.1 0 45.5-8.4 63.1-23.9 18-15.4 29.9-37 33.7-60.7 8.7-54.4-27.5-105.4-80.5-113.8zM280.5 672.2c-2.7-2.3-5.4-4.7-8-7.2-27.2-25.7-48.9-57.6-62.7-93.9l-0.1-0.2c-0.6-1.3-1.3-2.7-2.4-4.2l-0.3-0.4-0.2-0.4c-3.3-7.7-10.7-12.7-19.1-12.7-31.7 0-57.5-25.8-57.5-57.5 0-31.6 25.6-57.3 57.1-57.5 9.7-0.1 18.5-6.5 20.7-15.9 0.7-2.9 0.7-5.7 0.3-8.4-1.6-9.9-10.3-17.5-20.6-17.5-6 0-11.9 0.5-17.6 1.6-46.4 8.3-81.7 48.9-81.7 97.7 0 23.7 8.5 46.6 24 64.6 15.3 17.7 36.4 29.5 59.4 33.2l2.2 0.3 0.8 2.1c15.8 37.4 39 70.7 68.1 98.4 3.3 3.1 6.6 6.1 10 9.1 8.3 7.2 20.7 6.9 28.5-0.9 4.1-4.1 6.1-9.4 6.1-14.7 0.1-5.7-2.3-11.5-7-15.6zM444 867.9L330.7 754.6c-10.4-10.4-27.3-10.4-37.8 0-10.4 10.4-10.4 27.3 0 37.8l113.2 113.3c6.7 6.7 16.6 9.4 25.8 6.9s16.4-9.7 18.9-18.9-0.1-19.1-6.8-25.8z" fill="#FFFFFF" /><path d="M488.6 761.5l-41.4 34.1-41.4 34.1-20.1 16.6c-11.4 9.4-28.2 7.7-37.6-3.6-9.4-11.4-7.7-28.2 3.6-37.6l16.1-13.3 41.4-34.1 41.4-34.1 9.3 9.3 28.7 28.6z" fill="#FFFFFF" /><path d="M927.3 271.2c-10.4-10.4-27.3-10.4-37.7 0l-80.9 80.9c-33.1-29.2-76.1-40.3-116.8-33.8-14.1 2.3-27.9 6.6-41 13.1-13.4 6.7-25.9 15.6-37.1 26.7L362.2 609.9c-4.3 4.3-8.2 8.7-11.8 13.4L318.1 591c-10.4-10.4-27.3-10.4-37.8 0-10.4 10.4-10.4 27.3 0 37.8l95.1 95.1 33.8 33.8 17.1 17.1 20.8 20.8 122.6 122.6c10.4 10.4 27.3 10.4 37.7 0 10.4-10.4 10.4-27.3 0-37.7l-32.2-32.2c4.7-3.7 9.1-7.6 13.4-11.8l251.7-251.7c53.1-53.2 55.8-138.5 6.1-194.8l80.9-80.9c10.4-10.5 10.4-27.4 0-37.9zM802.6 547L550.9 798.6c-4.2 4.2-8.9 8-13.8 11.3l-48.5-48.5-28.6-28.5-9.3-9.3-62.1-62.1c3.2-4.9 7-9.5 11.3-13.8l113.2-113.2 69.2 69.2c10.4 10.4 27.3 10.4 37.8 0 10.4-10.4 10.4-27.3 0-37.8l-69.2-69.2 37.7-37.8 69.2 69.2c10.4 10.4 27.3 10.4 37.8 0 10.4-10.4 10.4-27.3 0-37.7l-69.2-69.2 25.2-25.2c34.8-34.8 91.1-34.8 125.8 0l25.2 25.2c34.7 34.7 34.7 91 0 125.8z" fill="#FFFFFF" /><path d="M368.5 433.5m-33.8 0a33.8 33.8 0 1 0 67.6 0 33.8 33.8 0 1 0-67.6 0Z" fill="#FFFFFF" /></svg>